<svg xmlns="http://www.w3.org/2000/svg" viewBox="0 0 60 40">
  <rect width="60" height="40" fill="#DE2910"/>
  <g fill="#FFDE00" transform="translate(10,8)">
    <polygon points="0,-6 1.76,-1.85 6.18,-1.85 2.21,1.09 3.53,5.45 0,2.76 -3.53,5.45 -2.21,1.09 -6.18,-1.85 -1.76,-1.85"/>
  </g>
  <g fill="#FFDE00" transform="translate(20,3)">
    <polygon points="0,-2.4 0.7,-0.74 2.47,-0.74 0.89,0.44 1.41,2.18 0,1.1 -1.41,2.18 -0.89,0.44 -2.47,-0.74 -0.7,-0.74"/>
  </g>
  <g fill="#FFDE00" transform="translate(23.5,7)">
    <polygon points="0,-2.4 0.7,-0.74 2.47,-0.74 0.89,0.44 1.41,2.18 0,1.1 -1.41,2.18 -0.89,0.44 -2.47,-0.74 -0.7,-0.74"/>
  </g>
  <g fill="#FFDE00" transform="translate(23.5,13)">
    <polygon points="0,-2.4 0.7,-0.74 2.47,-0.74 0.89,0.44 1.41,2.18 0,1.1 -1.41,2.18 -0.89,0.44 -2.47,-0.74 -0.7,-0.74"/>
  </g>
  <g fill="#FFDE00" transform="translate(20,17)">
    <polygon points="0,-2.4 0.7,-0.74 2.47,-0.74 0.89,0.44 1.41,2.18 0,1.1 -1.41,2.18 -0.89,0.44 -2.47,-0.74 -0.7,-0.74"/>
  </g>
</svg>
