<svg xmlns="http://www.w3.org/2000/svg" viewBox="0 0 64 64" fill="none">
  <!-- Shield background -->
  <path d="M32 4L8 16v16c0 14.4 10.24 27.84 24 32 13.76-4.16 24-17.6 24-32V16L32 4z" fill="#1E40AF"/>
  <path d="M32 8L12 18v14c0 12.6 8.96 24.36 20 28 11.04-3.64 20-15.4 20-28V18L32 8z" fill="#3B82F6"/>
  <!-- Building -->
  <rect x="22" y="24" width="20" height="22" rx="1" fill="white"/>
  <rect x="25" y="28" width="5" height="4" rx="0.5" fill="#1E40AF"/>
  <rect x="34" y="28" width="5" height="4" rx="0.5" fill="#1E40AF"/>
  <rect x="25" y="35" width="5" height="4" rx="0.5" fill="#1E40AF"/>
  <rect x="34" y="35" width="5" height="4" rx="0.5" fill="#1E40AF"/>
  <!-- Door -->
  <rect x="29" y="40" width="6" height="6" rx="0.5" fill="#1E40AF"/>
  <!-- Roof -->
  <polygon points="20,24 32,16 44,24" fill="white"/>
  <!-- Checkmark circle -->
  <circle cx="44" cy="20" r="8" fill="#10B981"/>
  <path d="M40 20l3 3 5-5" stroke="white" stroke-width="2" stroke-linecap="round" stroke-linejoin="round"/>
</svg>
